<svg viewBox="0.7 -4.401 258.2 78.301" xmlns="http://www.w3.org/2000/svg" fill="#000">
    <path d="m47.2 4.8-4.5 12.3a39.53 39.53 0 0 0-3.879-1.738 48.364 48.364 0 0 0-2.571-.912 21.78 21.78 0 0 0-3.384-.786q-1.728-.267-3.704-.338A40.731 40.731 0 0 0 27.7 13.3a32.097 32.097 0 0 0-2.753.11q-2.712.234-4.403.971a6.609 6.609 0 0 0-.894.469 5.015 5.015 0 0 0-2.364 3.608A7.274 7.274 0 0 0 17.2 19.6a6.652 6.652 0 0 0 .16 1.497 4.891 4.891 0 0 0 .74 1.703 7.539 7.539 0 0 0 1.168 1.311q.59.53 1.334 1.008a12.409 12.409 0 0 0 .048.031 20.096 20.096 0 0 0 2.014 1.118 25.863 25.863 0 0 0 1.786.782q2.15.85 4.75 1.75a129.184 129.184 0 0 1 4.457 1.741q2.02.834 3.79 1.66a73.977 73.977 0 0 1 1.153.549q4 1.95 6.65 4.55 2.65 2.6 3.95 6.1a19.265 19.265 0 0 1 .911 3.48q.292 1.714.365 3.681A36.161 36.161 0 0 1 50.5 51.9a22.118 22.118 0 0 1-.917 6.537A16.977 16.977 0 0 1 43.7 66.95a21.474 21.474 0 0 1-6.365 3.364Q31.548 72.3 23.2 72.3q-4.6 0-8.3-.55-3.454-.513-6.168-1.245a38.205 38.205 0 0 1-.382-.105 48.538 48.538 0 0 1-2.025-.614Q4.731 69.263 3.45 68.7a50.11 50.11 0 0 1-1.446-.661q-.706-.337-1.312-.658A25.153 25.153 0 0 1 0 67l4.4-12.4q2.649 1.453 6.356 2.65a56.732 56.732 0 0 0 1.294.4 29.456 29.456 0 0 0 4.035.874Q19.281 59 23.2 59a32.641 32.641 0 0 0 2.223-.071q1.85-.126 3.227-.479a13.682 13.682 0 0 0 1.493-.469q1.145-.437 1.957-1.031a5.77 5.77 0 0 0 1.043-.967A4.563 4.563 0 0 0 33.9 54.7a7.464 7.464 0 0 0 .441-1.835A9.33 9.33 0 0 0 34.4 51.8a6.358 6.358 0 0 0-2.153-4.804 9.658 9.658 0 0 0-1.047-.846q-2.613-1.837-8.292-3.907A103.241 103.241 0 0 0 20.2 41.3q-3.4-1.2-6.8-2.75t-6.1-3.9q-2.7-2.35-4.4-5.7a14.955 14.955 0 0 1-1.301-3.84Q1.2 23.125 1.2 20.8q0-4.8 1.8-8.65Q4.8 8.3 8.1 5.6a21.667 21.667 0 0 1 4.934-3.005A27.305 27.305 0 0 1 16.1 1.45 31.872 31.872 0 0 1 21.767.278 42.102 42.102 0 0 1 26.7 0a54.919 54.919 0 0 1 5.568.267Q35.852.633 38.8 1.5a59.429 59.429 0 0 1 3.572 1.167Q45.138 3.675 47.2 4.8Zm39.4 66.1H74.2q-5.1-10-10.35-23.4a340.192 340.192 0 0 1-6.348-17.687A416.662 416.662 0 0 1 53.9 18.3h15.8q1 3.9 2.35 8.45 1.35 4.55 2.8 9.2 1.45 4.65 2.9 9.05t2.85 8q1.3-3.6 2.8-8 1.5-4.4 2.95-9.05 1.45-4.65 2.8-9.2 1.35-4.55 2.35-8.45h15.4a396.488 396.488 0 0 1-6.07 18.757A323.151 323.151 0 0 1 96.95 47.5q-4.512 11.516-8.913 20.52A189.205 189.205 0 0 1 86.6 70.9Zm69.1-32.5v31q-3.2.7-8.9 1.65a61.84 61.84 0 0 1-4.612.579q-2.579.232-5.523.319A124.236 124.236 0 0 1 133 72q-5.1 0-9.25-.9a22.61 22.61 0 0 1-4.029-1.257 17.836 17.836 0 0 1-3.121-1.693q-3-2.05-4.6-5.35-1.432-2.954-1.582-7.111a27.422 27.422 0 0 1-.018-.989 19.13 19.13 0 0 1 .305-3.506q.412-2.207 1.377-3.994a11.938 11.938 0 0 1 .168-.3q1.85-3.2 4.95-5.1a21.262 21.262 0 0 1 4.914-2.186 25.781 25.781 0 0 1 2.186-.564q4-.85 8.3-.85a57.864 57.864 0 0 1 2.413.048q1.196.05 2.255.152a33.412 33.412 0 0 1 .482.05q1.512.168 2.64.404a14.448 14.448 0 0 1 1.01.246v-1.4a10.189 10.189 0 0 0-.337-2.689A7.543 7.543 0 0 0 139.1 31.6a6.483 6.483 0 0 0-2.189-1.396q-1.994-.806-5.05-.893a26.571 26.571 0 0 0-.761-.011q-3.8 0-7.5.55-3.31.492-5.819 1.344a22.497 22.497 0 0 0-.581.206l-1.9-12a33.162 33.162 0 0 1 1.065-.306q.483-.131 1.029-.267a70.357 70.357 0 0 1 1.156-.277 52.26 52.26 0 0 1 2.439-.499 65.435 65.435 0 0 1 1.811-.301q2.3-.35 4.85-.6t5.15-.25a48.032 48.032 0 0 1 4.618.209q3.623.351 6.382 1.291a20.273 20.273 0 0 1 3.628 1.627 15.072 15.072 0 0 1 3.422 2.673 15.603 15.603 0 0 1 3.525 6.046 18.517 18.517 0 0 1 .225.754 30.074 30.074 0 0 1 .889 4.785 38.765 38.765 0 0 1 .211 4.115Zm96.5 0v31q-3.2.7-8.9 1.65a61.84 61.84 0 0 1-4.612.579q-2.579.232-5.523.319A124.236 124.236 0 0 1 229.5 72q-5.1 0-9.25-.9a22.61 22.61 0 0 1-4.029-1.257 17.836 17.836 0 0 1-3.121-1.693q-3-2.05-4.6-5.35-1.432-2.954-1.582-7.111a27.422 27.422 0 0 1-.018-.989 19.13 19.13 0 0 1 .305-3.506q.412-2.207 1.377-3.994a11.938 11.938 0 0 1 .168-.3q1.85-3.2 4.95-5.1a21.262 21.262 0 0 1 4.914-2.186 25.781 25.781 0 0 1 2.186-.564q4-.85 8.3-.85a57.864 57.864 0 0 1 2.413.048q1.196.05 2.255.152a33.412 33.412 0 0 1 .482.05q1.512.168 2.64.404a14.448 14.448 0 0 1 1.01.246v-1.4a10.189 10.189 0 0 0-.337-2.689A7.543 7.543 0 0 0 235.6 31.6a6.483 6.483 0 0 0-2.189-1.396q-1.994-.806-5.05-.893a26.571 26.571 0 0 0-.761-.011q-3.8 0-7.5.55-3.31.492-5.819 1.344a22.497 22.497 0 0 0-.581.206l-1.9-12a33.162 33.162 0 0 1 1.065-.306q.483-.131 1.029-.267a70.357 70.357 0 0 1 1.156-.277 52.26 52.26 0 0 1 2.439-.499 65.435 65.435 0 0 1 1.811-.301q2.3-.35 4.85-.6t5.15-.25a48.032 48.032 0 0 1 4.618.209q3.623.351 6.382 1.291a20.273 20.273 0 0 1 3.628 1.627 15.072 15.072 0 0 1 3.422 2.673 15.603 15.603 0 0 1 3.525 6.046 18.517 18.517 0 0 1 .225.754 30.074 30.074 0 0 1 .889 4.785 38.765 38.765 0 0 1 .211 4.115Zm-48.8-19.2-2.5 12.3a84.102 84.102 0 0 0-1.598-.382q-.707-.162-1.483-.329a148.268 148.268 0 0 0-1.619-.339 27.476 27.476 0 0 0-3.902-.496 32.917 32.917 0 0 0-1.898-.054q-1.4 0-3.35.25-1.95.25-2.95.55v40.2h-14.9V21.1a70.562 70.562 0 0 1 3.778-1.196q2.606-.751 5.672-1.454a48.295 48.295 0 0 1 6.479-1.006 63.492 63.492 0 0 1 5.671-.244q.825 0 1.886.071a47.81 47.81 0 0 1 1.014.079q1.7.15 3.4.4t3.4.6a20.488 20.488 0 0 1 1.345.322q.861.239 1.555.528Zm-62 40.9V48.8q-.9-.2-2.7-.4-1.8-.2-3.3-.2-2.1 0-3.95.25t-3.25.95a5.879 5.879 0 0 0-1.508 1.063 5.28 5.28 0 0 0-.692.837 4.6 4.6 0 0 0-.658 1.588q-.133.612-.141 1.318a7.991 7.991 0 0 0-.001.094 8.09 8.09 0 0 0 .186 1.799q.475 2.081 2.164 3.051a8.862 8.862 0 0 0 2.103.849q1.04.282 2.285.405A20.953 20.953 0 0 0 134 60.5a87.255 87.255 0 0 0 3.188-.056 75.696 75.696 0 0 0 1.012-.044q1.909-.095 3.089-.282a13.428 13.428 0 0 0 .111-.018Zm96.5 0V48.8q-.9-.2-2.7-.4-1.8-.2-3.3-.2-2.1 0-3.95.25t-3.25.95a5.879 5.879 0 0 0-1.508 1.063 5.28 5.28 0 0 0-.692.837 4.6 4.6 0 0 0-.658 1.588q-.133.612-.141 1.318a7.991 7.991 0 0 0-.001.094 8.09 8.09 0 0 0 .186 1.799q.475 2.081 2.164 3.051a8.862 8.862 0 0 0 2.103.849q1.04.282 2.285.405a20.953 20.953 0 0 0 2.062.096 87.255 87.255 0 0 0 3.188-.056 75.696 75.696 0 0 0 1.012-.044q1.909-.095 3.089-.282a13.428 13.428 0 0 0 .111-.018Z" />
</svg>